<svg xmlns="http://www.w3.org/2000/svg" width="24" height="24" viewBox="0 0 24 24">
  <path fill="#ffffff" d="M17.613,14.034l1.2.721a.5.5,0,0,1,0,.858l-8.77,5.262a1,1,0,0,1-1.03,0L.243,15.613a.5.5,0,0,1,0-.858l1.2-.721,8.087,4.85,8.083-4.85Zm0-4.7,1.2.721a.5.5,0,0,1,0,.858L9.53,16.484.245,10.913a.5.5,0,0,1,0-.858l1.2-.721,8.085,4.85ZM10.044.143,18.815,5.4a.5.5,0,0,1,0,.858L9.53,11.834.245,6.263a.5.5,0,0,1,0-.858L9.015.143a1,1,0,0,1,1.03,0ZM9.53,2.166,3.417,5.834,9.53,9.5l6.113-3.668Z" transform="translate(2.47 1.166)"/>
</svg>
