<svg width="17" height="23" viewBox="0 0 17 23" fill="none" xmlns="http://www.w3.org/2000/svg">
  <path fill="#171924" d="M0.999573 9.19957C1.61771 9.55748 2.29515 9.80136 2.99957 9.91957L2.99957 20.9996L14.9996 20.9996L14.9996 2.99957L9.91657 2.99957C9.79836 2.29515 9.55448 1.61771 9.19657 0.999572L15.9996 0.999572C16.2648 0.999572 16.5191 1.10493 16.7067 1.29246C16.8942 1.48 16.9996 1.73436 16.9996 1.99957L16.9996 21.9996C16.9996 22.2648 16.8942 22.5191 16.7067 22.7067C16.5191 22.8942 16.2648 22.9996 15.9996 22.9996L1.99957 22.9996C1.73436 22.9996 1.48 22.8942 1.29247 22.7067C1.10493 22.5191 0.999574 22.2648 0.999574 21.9996L0.999573 9.19957ZM5.99957 3.99957C5.99967 3.53686 5.83932 3.08842 5.54585 2.73068C5.25238 2.37293 4.84395 2.12801 4.39014 2.03765C3.93633 1.94729 3.46524 2.01708 3.05711 2.23512C2.64899 2.45317 2.3291 2.80598 2.15195 3.23344C1.9748 3.6609 1.95135 4.13657 2.08559 4.57938C2.21983 5.0222 2.50346 5.40476 2.88816 5.6619C3.27285 5.91903 3.7348 6.03483 4.19529 5.98955C4.65579 5.94426 5.08633 5.74071 5.41357 5.41357C5.78867 5.03859 5.99946 4.52996 5.99957 3.99957ZM7.99957 3.99957C7.99977 4.925 7.67908 5.82187 7.09214 6.53736C6.5052 7.25285 5.68833 7.74269 4.78071 7.92341C3.8731 8.10414 2.9309 7.96456 2.11466 7.52847C1.29842 7.09238 0.658637 6.38676 0.304334 5.53183C-0.0499693 4.67691 -0.0968751 3.72559 0.171609 2.83996C0.440093 1.95433 1.00735 1.18919 1.77674 0.674919C2.54612 0.160648 3.47002 -0.0709354 4.39101 0.0196264C5.312 0.110188 6.17309 0.517293 6.82757 1.17157C7.57777 1.92154 7.99935 2.93879 7.99957 3.99957V3.99957ZM9.99957 5.99957L9.99957 3.99957L12.9996 3.99957L12.9996 5.99957L9.99957 5.99957Z"/>
</svg>
