<svg xmlns="http://www.w3.org/2000/svg" width="14.667" height="13.227" viewBox="0 0 14.667 13.227">
  <path fill="#fff" d="M.667-5.227h2v-8h-2a.667.667,0,0,0-.471.2.667.667,0,0,0-.2.471v6.667a.667.667,0,0,0,.2.471.667.667,0,0,0,.471.2ZM4.2-4.365,8.462-.1a.333.333,0,0,0,.212.1A.333.333,0,0,0,8.9-.067l.569-.427A1,1,0,0,0,9.81-.961a1,1,0,0,0,.026-.579L9.067-4.56h4.267a1.333,1.333,0,0,0,.943-.391,1.333,1.333,0,0,0,.391-.943v-1.4a1.333,1.333,0,0,0-.1-.508L12.5-12.811a.667.667,0,0,0-.245-.3.667.667,0,0,0-.372-.114H4.667a.667.667,0,0,0-.471.2.667.667,0,0,0-.2.471v7.724A.667.667,0,0,0,4.2-4.365Z" transform="translate(0 13.227)"/>
</svg>
