<svg xmlns="http://www.w3.org/2000/svg" width="20" height="20" viewBox="0 0 20 20">
  <path id="Path_2618" data-name="Path 2618" d="M0,0H20V20H0Z" fill="none"/>
  <path id="Path_2619" data-name="Path 2619" d="M9.167,14.948a6.672,6.672,0,1,0-1.667,0V10H5.833V8.333H7.5V6.955a3.639,3.639,0,0,1,.333-1.926,2.272,2.272,0,0,1,.947-.946,3.3,3.3,0,0,1,1.406-.317,5.381,5.381,0,0,1,1.064.067V5.417h-.417a3.022,3.022,0,0,0-1.268.137.606.606,0,0,0-.262.262c-.1.188-.137.375-.137,1.14V8.333H11.25L10.833,10H9.167Zm-.833,1.718a8.333,8.333,0,1,1,5.893-2.441,8.333,8.333,0,0,1-5.893,2.441Z" transform="translate(1.667 1.667)"/>
</svg>
