<svg xmlns="http://www.w3.org/2000/svg" width="20" height="20" viewBox="0 0 20 20">
  <path id="Path_4365" data-name="Path 4365" d="M0,0H20V20H0Z" fill="none"/>
  <path id="Path_4366" data-name="Path 4366" d="M11.333,6.135h5.333A1.667,1.667,0,0,1,18.333,7.8v1.75a1.667,1.667,0,0,1-.125.635l-2.579,6.263a.833.833,0,0,1-.771.519H.833A.833.833,0,0,1,0,16.135V7.8a.833.833,0,0,1,.833-.833h2.9a.833.833,0,0,0,.682-.353L8.96.176A.417.417,0,0,1,9.487.044L11,.8a2.083,2.083,0,0,1,1.083,2.377ZM5,8.291V15.3h9.3l2.367-5.75V7.8H11.333A1.667,1.667,0,0,1,9.718,5.724l.75-2.957a.417.417,0,0,0-.218-.476L9.7,2.016,5.777,7.576A2.513,2.513,0,0,1,5,8.291Zm-1.667.343H1.667V15.3H3.333Z" transform="translate(0.833 0.532)"/>
</svg>
