<svg xmlns="http://www.w3.org/2000/svg" width="20" height="20" viewBox="0 0 20 20">
  <path id="Path_4293" data-name="Path 4293" d="M0,0H20V20H0Z" fill="none"/>
  <path id="Path_4294" data-name="Path 4294" d="M9.268,12.521l-3.5-1.908a3.333,3.333,0,1,1,0-4.554l3.5-1.908a3.333,3.333,0,1,1,.8,1.462l-3.5,1.908a3.34,3.34,0,0,1,0,1.628l3.5,1.908a3.333,3.333,0,1,1-.8,1.462ZM3.334,10a1.667,1.667,0,1,0-1.179-.488A1.667,1.667,0,0,0,3.334,10ZM12.5,5a1.667,1.667,0,1,0-1.179-.488A1.667,1.667,0,0,0,12.5,5Zm0,10a1.667,1.667,0,1,0-1.179-.488A1.667,1.667,0,0,0,12.5,15Z" transform="translate(1.666 1.665)"/>
</svg>
