<svg xmlns="http://www.w3.org/2000/svg" width="24" height="24" viewBox="0 0 24 24">
  <path id="Path_2836" data-name="Path 2836" d="M0,0H24V24H0Z" fill="none"/>
  <path id="Path_2837" data-name="Path 2837" d="M20.383,1.967a8.384,8.384,0,0,1-2.4.658A4.2,4.2,0,0,0,19.821.311a8.358,8.358,0,0,1-2.656,1.015A4.182,4.182,0,0,0,10.039,5.14,11.874,11.874,0,0,1,5.265,3.872,11.874,11.874,0,0,1,1.421.77,4.188,4.188,0,0,0,2.715,6.354,4.168,4.168,0,0,1,.821,5.831v.052a4.185,4.185,0,0,0,3.354,4.1,4.21,4.21,0,0,1-1.889.072,4.185,4.185,0,0,0,3.9,2.906A8.394,8.394,0,0,1,0,14.693a11.83,11.83,0,0,0,6.41,1.88,11.819,11.819,0,0,0,11.9-11.9c0-.18,0-.362-.013-.54a8.5,8.5,0,0,0,2.087-2.165Z" transform="translate(1.779 3.689)" fill="#fff"/>
</svg>
