<svg xmlns="http://www.w3.org/2000/svg" width="20" height="20" viewBox="0 0 20 20">
  <path id="Path_2878" data-name="Path 2878" d="M0,0H20V20H0Z" fill="none"/>
  <path id="Path_2879" data-name="Path 2879" d="M4.384,13.747l.6.352a6.667,6.667,0,1,0-2.411-2.411l.352.6-.544,2,2-.546ZM.006,16.669l1.127-4.14a8.333,8.333,0,1,1,3.015,3.011ZM5.332,4.425a2.822,2.822,0,0,1,.333,0,1.234,1.234,0,0,1,.135.013.417.417,0,0,1,.327.207q.372.845.723,1.7a.506.506,0,0,1-.077.448,3.65,3.65,0,0,1-.219.31c-.094.121-.3.342-.3.342a.268.268,0,0,0-.051.221.738.738,0,0,0,.083.167l.049.083a5.279,5.279,0,0,0,.85,1.057c.1.1.2.2.3.288A5.008,5.008,0,0,0,8.8,10.1h0l.21.092a1.2,1.2,0,0,0,.159.055.292.292,0,0,0,.306-.108,9.731,9.731,0,0,1,.667-.778h0a.4.4,0,0,1,.315-.106.432.432,0,0,1,.148.033c.443.2,1.167.518,1.167.518l.485.218a.281.281,0,0,1,.158.221,1.608,1.608,0,0,1-.011.311,2.321,2.321,0,0,1-.157.611.962.962,0,0,1-.175.25,1.982,1.982,0,0,1-.275.24l-.1.075q-.156.1-.319.183a1.658,1.658,0,0,1-.694.192,4.3,4.3,0,0,1-.463.012c-.007,0-.473-.073-.473-.073a7.873,7.873,0,0,1-3.2-1.7c-.188-.167-.362-.344-.541-.522A7.925,7.925,0,0,1,4.366,7.529,2.892,2.892,0,0,1,4.09,6.352a2.274,2.274,0,0,1,.47-1.4A1.971,1.971,0,0,1,4.777,4.7a1.061,1.061,0,0,1,.245-.19.8.8,0,0,1,.309-.083Z" transform="translate(1.66 1.665)"/>
</svg>
